{
  "accessors": [
    {
      "bufferView": 2,
      "componentType": 5126,
      "count": 3859,
      "max": [
        5.130831241607666,
        5.130095958709717,
        0.5101370811462402
      ],
      "min": [
        -5.136096954345703,
        -5.136832237243652,
        -0.8712107539176941
      ],
      "type": "VEC3"
    },
    {
      "bufferView": 2,
      "byteOffset": 46308,
      "componentType": 5126,
      "count": 3859,
      "max": [
        1.0,
        1.0,
        1.0
      ],
      "min": [
        -1.0,
        -1.0,
        -1.0
      ],
      "type": "VEC3"
    },
    {
      "bufferView": 3,
      "componentType": 5126,
      "count": 3859,
      "max": [
        1.0,
        1.0,
        1.0,
        1.0
      ],
      "min": [
        -1.0,
        -1.0,
        -1.0,
        1.0
      ],
      "type": "VEC4"
    },
    {
      "bufferView": 1,
      "componentType": 5126,
      "count": 3859,
      "max": [
        0.9823638200759888,
        0.990638017654419
      ],
      "min": [
        0.014155572280287743,
        0.020527824759483337
      ],
      "type": "VEC2"
    },
    {
      "bufferView": 1,
      "byteOffset": 30872,
      "componentType": 5126,
      "count": 3859,
      "max": [
        0.9823638200759888,
        0.990638017654419
      ],
      "min": [
        0.014155572280287743,
        0.020527824759483337
      ],
      "type": "VEC2"
    },
    {
      "bufferView": 1,
      "byteOffset": 61744,
      "componentType": 5126,
      "count": 3859,
      "max": [
        0.9823638200759888,
        0.990638017654419
      ],
      "min": [
        0.014155572280287743,
        0.020527824759483337
      ],
      "type": "VEC2"
    },
    {
      "bufferView": 1,
      "byteOffset": 92616,
      "componentType": 5126,
      "count": 3859,
      "max": [
        0.9823638200759888,
        0.990638017654419
      ],
      "min": [
        0.014155572280287743,
        0.020527824759483337
      ],
      "type": "VEC2"
    },
    {
      "bufferView": 1,
      "byteOffset": 123488,
      "componentType": 5126,
      "count": 3859,
      "max": [
        0.9823638200759888,
        0.990638017654419
      ],
      "min": [
        0.014155572280287743,
        0.020527824759483337
      ],
      "type": "VEC2"
    },
    {
      "bufferView": 0,
      "componentType": 5125,
      "count": 13452,
      "type": "SCALAR"
    }
  ],
  "asset": {
    "extras": {
      "author": "Kirhl (https://sketchfab.com/Kirhl)",
      "license": "CC-BY-4.0 (http://creativecommons.org/licenses/by/4.0/)",
      "source": "https://sketchfab.com/3d-models/medieval-shield-471f1dfb2d1d40d6994be92047de3645",
      "title": "Medieval Shield"
    },
    "generator": "Sketchfab-12.68.0",
    "version": "2.0"
  },
  "bufferViews": [
    {
      "buffer": 0,
      "byteLength": 53808,
      "name": "floatBufferViews",
      "target": 34963
    },
    {
      "buffer": 0,
      "byteLength": 154360,
      "byteOffset": 53808,
      "byteStride": 8,
      "name": "floatBufferViews",
      "target": 34962
    },
    {
      "buffer": 0,
      "byteLength": 92616,
      "byteOffset": 208168,
      "byteStride": 12,
      "name": "floatBufferViews",
      "target": 34962
    },
    {
      "buffer": 0,
      "byteLength": 61744,
      "byteOffset": 300784,
      "byteStride": 16,
      "name": "floatBufferViews",
      "target": 34962
    }
  ],
  "buffers": [
    {
      "byteLength": 362528,
      "uri": "scene.bin"
    }
  ],
  "images": [
    {
      "uri": "textures/NewMat01_baseColor.jpeg"
    },
    {
      "uri": "textures/NewMat01_metallicRoughness.png"
    },
    {
      "uri": "textures/NewMat01_normal.jpeg"
    }
  ],
  "materials": [
    {
      "name": "NewMat01",
      "normalTexture": {
        "index": 2
      },
      "occlusionTexture": {
        "index": 1
      },
      "pbrMetallicRoughness": {
        "baseColorTexture": {
          "index": 0
        },
        "metallicRoughnessTexture": {
          "index": 1
        }
      }
    }
  ],
  "meshes": [
    {
      "name": "Object_0",
      "primitives": [
        {
          "attributes": {
            "NORMAL": 1,
            "POSITION": 0,
            "TANGENT": 2,
            "TEXCOORD_0": 3,
            "TEXCOORD_1": 4,
            "TEXCOORD_2": 5,
            "TEXCOORD_3": 6,
            "TEXCOORD_4": 7
          },
          "indices": 8,
          "material": 0,
          "mode": 4
        }
      ]
    }
  ],
  "nodes": [
    {
      "children": [
        1
      ],
      "matrix": [
        1.0,
        0.0,
        0.0,
        0.0,
        0.0,
        2.220446049250313e-16,
        -1.0,
        0.0,
        0.0,
        1.0,
        2.220446049250313e-16,
        0.0,
        0.0,
        0.0,
        0.0,
        1.0
      ],
      "name": "Sketchfab_model"
    },
    {
      "children": [
        2
      ],
      "name": "root"
    },
    {
      "children": [
        3
      ],
      "matrix": [
        1.0,
        0.0,
        0.0,
        0.0,
        0.0,
        2.220446049250313e-16,
        1.0,
        0.0,
        0.0,
        -1.0,
        2.220446049250313e-16,
        0.0,
        0.0,
        0.0,
        0.0,
        1.0
      ],
      "name": "GLTF_SceneRootNode"
    },
    {
      "children": [
        4
      ],
      "matrix": [
        3.258414693618761e-08,
        -1.7484556025237907e-08,
        0.20000000298023224,
        0.0,
        1.0652644277797663e-07,
        -0.20000000298023224,
        -1.7484572012449462e-08,
        0.0,
        0.20000000298023224,
        1.0652644277797663e-07,
        -3.258413627804657e-08,
        0.0,
        0.002632655669003725,
        0.4919795095920563,
        -0.0033689679112285376,
        1.0
      ],
      "name": "Circle.001_0"
    },
    {
      "mesh": 0,
      "name": "Object_4"
    }
  ],
  "samplers": [
    {
      "magFilter": 9729,
      "minFilter": 9987,
      "wrapS": 10497,
      "wrapT": 10497
    }
  ],
  "scene": 0,
  "scenes": [
    {
      "name": "Sketchfab_Scene",
      "nodes": [
        0
      ]
    }
  ],
  "textures": [
    {
      "sampler": 0,
      "source": 0
    },
    {
      "sampler": 0,
      "source": 1
    },
    {
      "sampler": 0,
      "source": 2
    }
  ]
}
